<svg
		xmlns="http://www.w3.org/2000/svg"
		xml:space="preserve"
		viewBox="0 0 96 128"
	>
		<path
			fill="rgb(147, 111, 137)"
			d="M80 16c-7.4 0-13.6 5-15.4 11.9V0h-1.1v59.9C61.6 53 55.4 48 48 48c0 8.6 6.9 15.7 15.4 16v27.9C61.6 85 55.4 80 48 80c0 8.6 6.9 15.7 15.4 16v32h1.1v-16c8.6-.3 15.4-7.3 15.4-16-7.4 0-13.6 5-15.4 11.9V32c8.6-.3 15.5-7.4 15.5-16zm-56 8c-3.4 0-6.3 2.1-7.4 5.1V0h-1.1v13.1C14.3 10.1 11.4 8 8 8c0 4.2 3.3 7.7 7.4 8v29.1c-1.2-3-4.1-5.1-7.4-5.1 0 4.2 3.3 7.7 7.4 8v61.1c-1.2-3-4.1-5.1-7.4-5.1 0 4.2 3.3 7.7 7.4 8v16h1.1V88c4.2-.3 7.4-3.7 7.4-8-3.4 0-6.3 2.1-7.4 5.1V32c4.2-.3 7.5-3.8 7.5-8zm22-6c-2.4 0-4.5 1.4-5.4 3.5V0h-1.1v5.5c-1-2.1-3-3.5-5.4-3.5 0 3.1 2.4 5.7 5.4 6v29.5c-1-2.1-3-3.5-5.4-3.5 0 3.1 2.4 5.7 5.4 6v53.5c-1-2.1-3-3.5-5.4-3.5 0 3.1 2.4 5.7 5.4 6v32h1.1v-4c3-.3 5.4-2.8 5.4-6-2.4 0-4.5 1.4-5.4 3.5V80c3-.3 5.4-2.8 5.4-6-2.4 0-4.5 1.4-5.4 3.5V48c3-.3 5.4-2.8 5.4-6-2.4 0-4.5 1.4-5.4 3.5V24c3-.3 5.4-2.9 5.4-6zm48 16c-2.4 0-4.5 1.4-5.4 3.5V8c3-.3 5.4-2.8 5.4-6-2.4 0-4.5 1.4-5.4 3.5V0h-1.1v21.5c-1-2.1-3-3.5-5.4-3.5 0 3.1 2.4 5.7 5.4 6v21.5c-1-2.1-3-3.5-5.4-3.5 0 3.1 2.4 5.7 5.4 6v29.5c-1-2.1-3-3.5-5.4-3.5 0 3.1 2.4 5.7 5.4 6v41.5c-1-2.1-3-3.5-5.4-3.5 0 3.1 2.4 5.7 5.4 6v4h1.1V96c3-.3 5.4-2.8 5.4-6-2.4 0-4.5 1.4-5.4 3.5V40c3-.3 5.4-2.9 5.4-6z"
		/>
	</svg>