<svg
		xmlns="http://www.w3.org/2000/svg"
		xml:space="preserve"
		viewBox="0 0 96 128"
	>
		<g fill="rgb(199, 144, 162)">
			<path
				d="M88 62c-11.6 0-21.2 8.2-23.5 19.1V56.9c0 .1.1.2.1.3 2.4 5 8.5 7.1 13.5 4.7 5-2.4 7.1-8.5 4.7-13.5-.3-.6-.6-1.1-.9-1.6.6.2 1.1.4 1.7.6 5.4 1.2 10.9-2.2 12.1-7.6 1.2-5.4-2.2-10.9-7.6-12.1-.6-.1-1.2-.2-1.8-.2a10.05 10.05 0 0 0 3.1-15.2c-3.5-4.4-9.8-5.1-14.2-1.6a8 8 0 0 0-1.3 1.3c.1-.6.2-1.2.2-1.8a10.1 10.1 0 1 0-20.2-.1c0 .6.1 1.2.2 1.8a8 8 0 0 0-1.3-1.3C48.4 7.2 42 7.9 38.5 12.3S35.8 23 40.1 26.5c.5.4 1 .7 1.5 1-.6 0-1.2.1-1.8.2-5.4 1.2-8.8 6.7-7.6 12.1s6.7 8.8 12.1 7.6c.6-.1 1.2-.3 1.7-.6-.4.5-.7 1-.9 1.6-2.4 5-.3 11.1 4.7 13.5 5 2.4 11.1.3 13.5-4.7 0-.1.1-.2.1-.3v24.2A23.83 23.83 0 0 0 40 62c0 13.1 10.5 23.7 23.5 24v42h1V86c13-.3 23.5-10.9 23.5-24zM23.7 7.3c-.6.2-1.2.5-1.7.8A6.25 6.25 0 0 0 16 0a6.27 6.27 0 0 0-6 8.2c-.5-.4-1.1-.7-1.7-.9-3.3-1.1-6.9.7-8 4.1a6.32 6.32 0 0 0 6 8.3c-.6.3-1 .8-1.4 1.3a6.26 6.26 0 0 0 1.4 8.8c2.8 2.1 6.8 1.4 8.8-1.4.1-.2.3-.4.4-.6v12.7C14 35.6 9.4 32 4 32a12 12 0 0 0 11.5 12v41.3A8 8 0 0 0 8 80c0 4.2 3.3 7.7 7.5 8v40h1v-16a8 8 0 0 0 7.5-8c-3.4 0-6.4 2.2-7.5 5.2V76a8 8 0 0 0 7.5-8c-3.4 0-6.4 2.2-7.5 5.2V44A12 12 0 0 0 28 32c-5.4 0-10 3.6-11.5 8.6V27.8a6.37 6.37 0 0 0 9.2 2c2.8-2.1 3.4-6 1.4-8.8-.4-.5-.8-1-1.3-1.3.6 0 1.2-.1 1.9-.3 3.3-1.1 5.1-4.6 4.1-8a6.64 6.64 0 0 0-8.1-4.1z"
			/>
			<path
				d="m40 88-4 4-4-4v8c0 4.2 3.3 7.7 7.4 8v5.1c-1.2-3-4.1-5.1-7.4-5.1 0 4.2 3.3 7.7 7.4 8v16h1.1v-16c4.2-.3 7.4-3.7 7.4-8-3.4 0-6.3 2.1-7.4 5.1V104c4.2-.3 7.4-3.7 7.4-8v-8l-4 4-3.9-4zm56 8v-8l-4 4-4-4-4 4-4-4v8c0 4.2 3.3 7.7 7.4 8v5.1c-1.2-3-4.1-5.1-7.4-5.1 0 4.2 3.3 7.7 7.4 8v16h1.1v-16c4.2-.3 7.4-3.7 7.4-8-3.4 0-6.3 2.1-7.4 5.1V104c4.2-.3 7.5-3.8 7.5-8z"
			/>
		</g>
	</svg>