<?xml version="1.0" standalone="no"?>
<!DOCTYPE svg PUBLIC "-//W3C//DTD SVG 20010904//EN"
 "http://www.w3.org/TR/2001/REC-SVG-20010904/DTD/svg10.dtd">
<svg version="1.0" xmlns="http://www.w3.org/2000/svg"
 width="700.000000pt" height="700.000000pt" viewBox="0 0 700.000000 700.000000"
 preserveAspectRatio="xMidYMid meet">
<metadata>
Created by potrace 1.14, written by Peter Selinger 2001-2017
</metadata>
<g transform="translate(0.000000,700.000000) scale(0.100000,-0.100000)"
fill="#000000" stroke="none">
<path d="M3128 6995 c-2 -2 -62 -6 -134 -9 -72 -4 -142 -9 -155 -11 -13 -2
-63 -6 -111 -10 -49 -3 -96 -8 -105 -9 -10 -2 -45 -7 -78 -11 -32 -4 -66 -8
-75 -10 -8 -1 -42 -6 -75 -10 -32 -3 -62 -8 -65 -10 -3 -1 -25 -6 -50 -9 -215
-29 -546 -118 -779 -208 -147 -57 -404 -187 -476 -240 -5 -4 -57 -42 -114 -84
-405 -300 -652 -724 -741 -1272 -12 -74 -14 -93 -25 -237 -8 -98 -8 -337 -1
-425 11 -127 15 -168 21 -201 3 -19 8 -47 11 -64 78 -470 349 -854 763 -1078
31 -16 74 -40 96 -52 73 -39 371 -155 401 -155 2 0 -2 12 -10 28 -23 44 -65
177 -86 272 -43 195 -45 449 -4 649 84 413 339 676 804 831 111 37 299 82 388
94 l44 6 -25 -43 c-90 -155 -629 -1093 -654 -1137 -11 -19 -59 -102 -107 -183
-47 -82 -86 -151 -86 -154 0 -3 -8 -17 -19 -31 -10 -15 -32 -52 -49 -82 -16
-30 -87 -154 -157 -275 -70 -121 -210 -364 -312 -540 -101 -176 -189 -327
-193 -335 -16 -25 -339 -590 -349 -609 -9 -16 30 -17 785 -17 437 1 794 -1
794 -2 0 -6 -53 -100 -170 -302 -62 -107 -223 -386 -358 -620 -134 -234 -246
-428 -249 -433 -2 -4 318 -6 713 -5 625 3 718 5 725 18 5 8 30 51 55 95 26 44
58 100 72 125 14 25 105 182 202 350 97 168 205 356 241 417 35 62 66 113 69
113 3 0 13 -15 24 -33 10 -17 95 -166 190 -330 94 -163 179 -312 189 -330 43
-75 221 -384 234 -404 l13 -23 716 0 715 0 -24 43 c-56 99 -302 525 -324 559
-12 21 -23 39 -23 41 0 2 -92 163 -205 357 -112 195 -200 357 -196 360 5 3
363 5 795 4 l785 0 -28 50 c-15 28 -70 123 -121 211 -51 88 -104 180 -118 205
-14 25 -57 99 -95 165 -38 66 -83 145 -100 175 -17 30 -38 66 -47 80 -9 14
-20 32 -24 40 -8 18 -1 6 -260 455 -115 198 -217 376 -228 395 -11 19 -28 49
-38 66 -21 36 -390 677 -691 1199 -114 198 -203 361 -198 363 7 3 127 -20 229
-43 116 -26 278 -80 380 -127 382 -177 593 -474 637 -898 8 -82 8 -286 -1
-360 -15 -132 -68 -336 -108 -417 -6 -13 -9 -25 -7 -28 7 -7 169 50 279 98
252 109 405 210 565 371 136 137 186 207 265 364 124 249 183 554 182 935 -2
569 -145 1027 -436 1392 -71 89 -236 246 -340 323 -324 240 -731 405 -1262
511 -55 11 -122 22 -148 26 -27 3 -51 7 -55 9 -3 2 -37 7 -74 11 -37 3 -77 8
-87 10 -16 3 -63 8 -185 21 -16 1 -70 6 -120 10 -49 3 -110 8 -135 10 -54 5
-887 13 -892 9z m-247 -3724 c8 -1 7 -1215 -2 -1221 -4 -3 -65 -5 -136 -5
l-128 1 0 609 c-1 585 0 610 18 615 14 4 222 5 248 1z m1504 -611 l0 -614
-128 0 c-71 -1 -132 1 -136 4 -14 9 -8 1210 6 1218 6 4 67 7 135 6 l123 0 0
-614z"/>
</g>
</svg>
