<?xml version="1.0" standalone="no"?>
<!DOCTYPE svg PUBLIC "-//W3C//DTD SVG 20010904//EN"
 "http://www.w3.org/TR/2001/REC-SVG-20010904/DTD/svg10.dtd">
<svg version="1.0" xmlns="http://www.w3.org/2000/svg"
 width="700.000000pt" height="700.000000pt" viewBox="0 0 700.000000 700.000000"
 preserveAspectRatio="xMidYMid meet">
<metadata>
Created by potrace 1.14, written by Peter Selinger 2001-2017
</metadata>
<g transform="translate(0.000000,700.000000) scale(0.100000,-0.100000)"
fill="#000000" stroke="none">
<path d="M3178 6995 c-2 -1 -61 -5 -132 -9 -71 -4 -145 -9 -165 -11 -20 -2
-61 -7 -91 -10 -61 -6 -267 -34 -302 -40 -12 -3 -40 -7 -62 -11 -22 -3 -43 -7
-46 -9 -3 -2 -26 -6 -50 -10 -162 -24 -530 -136 -715 -217 -212 -93 -451 -236
-594 -355 -79 -65 -269 -258 -319 -323 -164 -213 -292 -456 -378 -717 -29 -86
-80 -290 -89 -353 -4 -24 -8 -47 -10 -50 -7 -12 -30 -190 -42 -335 -16 -180
-8 -630 13 -775 5 -33 29 -173 38 -215 59 -291 215 -616 394 -822 53 -60 182
-190 224 -226 22 -17 51 -42 66 -55 35 -30 189 -142 195 -142 5 0 3 20 -12
110 -6 36 -13 85 -17 110 -3 25 -7 56 -9 70 -54 356 1 705 167 1050 219 455
629 818 1108 980 36 12 73 26 83 31 23 12 22 -2 -5 -54 -12 -23 -23 -44 -23
-47 -1 -4 -169 -339 -393 -785 -28 -55 -117 -235 -200 -400 -82 -165 -162
-325 -178 -355 -15 -30 -29 -57 -29 -60 -1 -6 -657 -1316 -673 -1346 -51 -92
-220 -444 -214 -446 4 -2 303 -3 665 -3 361 1 657 1 657 0 0 -1 -129 -260
-287 -576 -159 -316 -289 -577 -291 -581 -2 -5 324 -8 725 -8 l729 0 289 580
c160 319 292 580 295 580 3 0 135 -261 294 -580 l289 -580 728 0 728 0 -17 38
c-10 20 -140 281 -289 580 -149 298 -271 543 -270 543 1 1 299 3 662 5 363 1
661 3 662 3 2 1 -62 137 -76 161 -5 8 -132 260 -281 560 -968 1937 -1373 2747
-1382 2758 -44 54 324 -96 491 -201 502 -314 835 -838 898 -1412 13 -120 6
-327 -17 -469 -5 -34 -12 -83 -15 -110 -3 -26 -10 -69 -15 -95 -4 -25 -7 -48
-5 -49 5 -6 129 84 210 151 158 132 297 282 391 421 124 185 236 448 271 635
2 14 6 28 8 32 3 4 7 24 10 45 4 22 8 46 10 54 2 8 7 42 11 75 3 33 8 62 9 65
10 16 19 223 20 420 0 264 -12 446 -40 610 -3 14 -8 45 -11 70 -10 72 -71 313
-105 413 -119 354 -286 625 -538 877 -220 220 -474 386 -786 515 -83 35 -269
102 -305 110 -8 2 -55 14 -105 28 -147 40 -255 64 -420 91 -124 20 -153 25
-221 31 -32 3 -70 8 -84 10 -14 2 -63 7 -110 10 -47 4 -103 9 -125 11 -44 5
-791 14 -797 9z m-552 -4505 c0 -393 -2 -721 -4 -727 -3 -10 -41 -13 -146 -13
l-142 0 0 730 0 730 145 -2 146 -3 1 -715z m2040 -10 l0 -731 -145 3 -146 3
-1 720 c0 396 1 723 3 727 2 4 68 7 146 7 l143 1 0 -730z"/>
</g>
</svg>
