<?xml version="1.0" encoding="utf-8"?>
<!-- Generator: Adobe Illustrator 25.4.1, SVG Export Plug-In . SVG Version: 6.00 Build 0)  -->
<svg version="1.1" id="Layer_1" xmlns="http://www.w3.org/2000/svg" xmlns:xlink="http://www.w3.org/1999/xlink" x="0px" y="0px"
	 viewBox="0 0 768 768" enable-background="new 0 0 768 768" xml:space="preserve">
<g>
	<path fill="#FF0000" d="M282.3,244.4c-95.8,15-139.1,56.9-139.1,137.6c0,25.4,4.5,45.9,14.5,69.3C57.4,419.9,15,362.1,15,257.8
		C15,83.3,136.6,0,384,0s369,83.3,369,257.8c0,104.2-42.4,162.1-142.6,193.5c10-23.4,14.5-43.9,14.5-69.3
		c0-80.8-43.4-122.7-139.1-137.6l215.4,374h-175L612.4,768H455.3L384,644.3L312.7,768H155.6l86.3-149.6h-175L282.3,244.4z
		 M316.7,543.6V408.9h-29.9v134.6H316.7z M481.2,543.6V408.9h-29.9v134.6H481.2z"/>
</g>
</svg>
